<svg width="24" height="24" viewBox="0 0 24 24" fill="none" xmlns="http://www.w3.org/2000/svg">
<path d="M14.9751 3.01903L15.9351 1.28703C15.9474 1.26483 15.9552 1.24044 15.958 1.21524C15.9609 1.19003 15.9587 1.16452 15.9517 1.14014C15.9447 1.11577 15.933 1.09301 15.9172 1.07317C15.9014 1.05334 15.8818 1.03681 15.8596 1.02453C15.8374 1.01225 15.813 1.00446 15.7878 1.00161C15.7626 0.998761 15.7371 1.0009 15.7127 1.00791C15.6883 1.01492 15.6656 1.02667 15.6457 1.04247C15.6259 1.05828 15.6094 1.07783 15.5971 1.10003L14.6271 2.85003C13.7991 2.48692 12.9047 2.29944 12.0006 2.29944C11.0965 2.29944 10.2021 2.48692 9.3741 2.85003L8.4041 1.10003C8.3793 1.05494 8.33761 1.02155 8.2882 1.00721C8.23878 0.992859 8.18569 0.99873 8.1406 1.02353C8.09552 1.04833 8.06213 1.09002 8.04778 1.13943C8.03343 1.18885 8.0393 1.24194 8.0641 1.28703L9.0241 3.01903C8.11097 3.46988 7.33949 4.16328 6.79413 5.0233C6.24876 5.88333 5.95054 6.87683 5.9321 7.89503H18.0691C18.0505 6.87662 17.752 5.88297 17.2062 5.02293C16.6605 4.16288 15.8886 3.4696 14.9751 3.01903ZM5.9311 17.17C5.93071 17.3631 5.96843 17.5543 6.0421 17.7328C6.11577 17.9113 6.22395 18.0734 6.36042 18.21C6.4969 18.3466 6.65899 18.4549 6.8374 18.5286C7.01581 18.6024 7.20703 18.6403 7.4001 18.64H8.3731V21.64C8.3731 22.0009 8.51644 22.3469 8.77158 22.602C9.02673 22.8572 9.37277 23.0005 9.7336 23.0005C10.0944 23.0005 10.4405 22.8572 10.6956 22.602C10.9508 22.3469 11.0941 22.0009 11.0941 21.64V18.64H12.9081V21.64C12.9081 22.0007 13.0514 22.3466 13.3064 22.6017C13.5615 22.8567 13.9074 23 14.2681 23C14.6288 23 14.9747 22.8567 15.2298 22.6017C15.4848 22.3466 15.6281 22.0007 15.6281 21.64V18.64H16.6021C16.7949 18.6402 16.9859 18.6023 17.164 18.5286C17.3422 18.4548 17.5041 18.3467 17.6404 18.2104C17.7768 18.074 17.8849 17.9121 17.9586 17.734C18.0324 17.5558 18.0702 17.3648 18.0701 17.172V8.37503H5.9301L5.9311 17.17ZM4.0641 8.14003C3.88542 8.14003 3.70849 8.17524 3.54342 8.24365C3.37835 8.31206 3.22838 8.41232 3.10208 8.53872C2.97578 8.66511 2.87563 8.81515 2.80734 8.98027C2.73905 9.14539 2.70397 9.32235 2.7041 9.50103V15.17C2.7041 15.3486 2.73928 15.5255 2.80763 15.6905C2.87597 15.8555 2.97615 16.0054 3.10244 16.1317C3.22872 16.258 3.37865 16.3582 3.54365 16.4265C3.70866 16.4949 3.8855 16.53 4.0641 16.53C4.2427 16.53 4.41955 16.4949 4.58455 16.4265C4.74955 16.3582 4.89948 16.258 5.02577 16.1317C5.15206 16.0054 5.25223 15.8555 5.32058 15.6905C5.38892 15.5255 5.4241 15.3486 5.4241 15.17V9.50203C5.4241 9.14133 5.28082 8.79541 5.02577 8.54036C4.77072 8.28531 4.4248 8.14203 4.0641 8.14203V8.14003ZM19.9361 8.14003C19.7574 8.14003 19.5805 8.17524 19.4154 8.24365C19.2504 8.31206 19.1004 8.41232 18.9741 8.53872C18.8478 8.66511 18.7476 8.81515 18.6793 8.98027C18.6111 9.14539 18.576 9.32235 18.5761 9.50103V15.17C18.5761 15.3486 18.6113 15.5255 18.6796 15.6905C18.748 15.8555 18.8481 16.0054 18.9744 16.1317C19.1007 16.258 19.2506 16.3582 19.4157 16.4265C19.5807 16.4949 19.7575 16.53 19.9361 16.53C20.1147 16.53 20.2915 16.4949 20.4566 16.4265C20.6216 16.3582 20.7715 16.258 20.8978 16.1317C21.0241 16.0054 21.1242 15.8555 21.1926 15.6905C21.2609 15.5255 21.2961 15.3486 21.2961 15.17V9.50203C21.2961 9.14133 21.1528 8.79541 20.8978 8.54036C20.6427 8.28531 20.2968 8.14203 19.9361 8.14203V8.14003Z" fill="#010101"/>
</svg>
