<svg width="24" height="24" viewBox="0 0 24 24" fill="none" xmlns="http://www.w3.org/2000/svg">
<rect width="24" height="24" rx="12" fill="#1B1C2A"/>
<path d="M10.3667 14.0229L16.0167 8.37285C16.15 8.23952 16.3056 8.17285 16.4834 8.17285C16.6611 8.17285 16.8167 8.23952 16.95 8.37285C17.0834 8.50619 17.15 8.66463 17.15 8.84818C17.15 9.03174 17.0834 9.18996 16.95 9.32285L10.8334 15.4562C10.7 15.5895 10.5445 15.6562 10.3667 15.6562C10.1889 15.6562 10.0334 15.5895 9.90004 15.4562L7.03337 12.5895C6.90004 12.4562 6.83604 12.298 6.84137 12.1149C6.84671 11.9317 6.91626 11.7733 7.05004 11.6395C7.18382 11.5057 7.34226 11.4391 7.52537 11.4395C7.70848 11.44 7.86671 11.5066 8.00004 11.6395L10.3667 14.0229Z" fill="white"/>
</svg>
