<svg width="40" height="40" viewBox="0 0 40 40" fill="none" xmlns="http://www.w3.org/2000/svg">
<rect width="40" height="40" rx="20" fill="#24D071"/>
<path d="M17.5499 23.15L26.0249 14.675C26.2249 14.475 26.4583 14.375 26.7249 14.375C26.9916 14.375 27.2249 14.475 27.4249 14.675C27.6249 14.875 27.7249 15.1127 27.7249 15.388C27.7249 15.6633 27.6249 15.9007 27.4249 16.1L18.2499 25.3C18.0499 25.5 17.8166 25.6 17.5499 25.6C17.2833 25.6 17.0499 25.5 16.8499 25.3L12.5499 21C12.3499 20.8 12.2539 20.5627 12.2619 20.288C12.2699 20.0133 12.3743 19.7757 12.5749 19.575C12.7756 19.3743 13.0133 19.2743 13.2879 19.275C13.5626 19.2757 13.7999 19.3757 13.9999 19.575L17.5499 23.15Z" fill="white"/>
</svg>
