<svg width="14" height="14" viewBox="0 0 14 14" fill="none" xmlns="http://www.w3.org/2000/svg">
<path d="M6.66667 2.66667C7.03486 2.66667 7.33333 2.96514 7.33333 3.33333V6.39062L9.13802 8.19531L9.18359 8.24609C9.39716 8.50794 9.3821 8.89394 9.13802 9.13802C8.89394 9.3821 8.50794 9.39716 8.24609 9.18359L8.19531 9.13802L6.19531 7.13802C6.07029 7.013 6 6.84348 6 6.66667V3.33333C6 2.96514 6.29848 2.66667 6.66667 2.66667Z" fill="white"/>
<path fill-rule="evenodd" clip-rule="evenodd" d="M6.66667 0C8.43478 0 10.1306 0.702232 11.3809 1.95247C12.6311 3.20272 13.3333 4.89856 13.3333 6.66667C13.3333 7.54214 13.1612 8.40926 12.8262 9.2181C12.4911 10.0269 11.9999 10.7618 11.3809 11.3809C10.7618 11.9999 10.0269 12.4911 9.2181 12.8262C8.40926 13.1612 7.54214 13.3333 6.66667 13.3333C5.79119 13.3333 4.92407 13.1612 4.11523 12.8262C3.30642 12.4911 2.57151 11.9999 1.95247 11.3809C1.33343 10.7618 0.842192 10.0269 0.507161 9.2181C0.17213 8.40926 0 7.54215 0 6.66667C3.97364e-08 4.89856 0.702231 3.20272 1.95247 1.95247C3.20272 0.702232 4.89856 0 6.66667 0ZM6.66667 1.33333C5.25218 1.33333 3.89538 1.89499 2.89518 2.89518C1.89499 3.89538 1.33333 5.25218 1.33333 6.66667C1.33333 7.36705 1.47156 8.06061 1.73958 8.70768C2.00761 9.3547 2.39997 9.94294 2.89518 10.4382C3.3904 10.9334 3.97863 11.3257 4.62565 11.5937C5.27272 11.8618 5.96628 12 6.66667 12C7.36705 12 8.06061 11.8618 8.70768 11.5937C9.3547 11.3257 9.94294 10.9334 10.4382 10.4382C10.9334 9.94294 11.3257 9.3547 11.5937 8.70768C11.8618 8.06061 12 7.36705 12 6.66667C12 5.25218 11.4383 3.89538 10.4382 2.89518C9.43796 1.89499 8.08115 1.33333 6.66667 1.33333Z" fill="white"/>
</svg>
