<svg width="80" height="80" viewBox="0 0 80 80" fill="none" xmlns="http://www.w3.org/2000/svg">
<path d="M38.7915 59.9646C39.1891 59.9879 39.592 60 40 60V80C39.2008 80 38.4072 79.973 37.6196 79.9268L38.7915 59.9646ZM42.3792 79.9268C41.5919 79.9729 40.7988 80 40 80V60C40.408 60 40.8109 59.9879 41.2085 59.9646L42.3792 79.9268ZM25.0366 53.2715C25.5666 53.8682 26.1318 54.4334 26.7285 54.9634L13.4497 69.9133C12.2629 68.8592 11.1395 67.7359 10.0854 66.5491L25.0366 53.2715ZM69.9133 66.5491C68.8592 67.7359 67.7359 68.8592 66.5491 69.9133L53.2715 54.9634C53.8682 54.4334 54.4334 53.8682 54.9634 53.2715L69.9133 66.5491ZM0 40C0 39.2008 0.0257954 38.4072 0.0720215 37.6196L20.0354 38.7915C20.0121 39.1891 20 39.592 20 40C20 40.408 20.0121 40.8109 20.0354 41.2085L0.0720215 42.3792C0.0258426 41.592 0 40.7988 0 40ZM80 40C80 40.7988 79.9729 41.5919 79.9268 42.3792L59.9646 41.2085C59.9879 40.8109 60 40.408 60 40C60 39.592 59.9879 39.1891 59.9646 38.7915L79.9268 37.6196C79.973 38.4072 80 39.2008 80 40ZM26.7285 25.0366C26.1318 25.5666 25.5666 26.1318 25.0366 26.7285L10.0854 13.4497C11.1395 12.2629 12.2629 11.1395 13.4497 10.0854L26.7285 25.0366ZM66.5491 10.0854C67.7359 11.1395 68.8592 12.2629 69.9133 13.4497L54.9634 26.7285C54.4334 26.1318 53.8682 25.5666 53.2715 25.0366L66.5491 10.0854ZM40 0C40.7988 0 41.592 0.0258426 42.3792 0.0720215L41.2085 20.0354C40.8109 20.0121 40.408 20 40 20C39.592 20 39.1891 20.0121 38.7915 20.0354L37.6196 0.0720215C38.4072 0.0257954 39.2008 0 40 0Z" fill="#24D071"/>
</svg>
