<svg width="252" height="40" viewBox="0 0 252 40" fill="none" xmlns="http://www.w3.org/2000/svg">
<path d="M37.3073 19.5335C37.904 19.3525 38.2186 19.3795 38.502 19.6359C38.7502 19.8605 38.7674 20.2342 38.7674 25.429C38.7674 31.8861 38.6769 32.6268 37.6271 34.7646C36.8947 36.2558 35.5803 37.5804 33.9789 38.4405C31.1581 39.9559 30.775 39.9994 20.2534 40C14.7565 40.0004 11.2474 39.9425 10.476 39.8386C8.31232 39.5474 8.06988 39.3777 4.10964 35.3789C1.78097 33.0276 0.47755 31.6005 0.285624 31.1923C0.0305442 30.6497 0.00208861 30.3526 0.0560645 28.7934C0.143422 26.2705 0.630161 25.1225 1.98338 24.2479C2.40359 23.9763 2.82526 23.965 14.1655 23.926C22.0749 23.8989 26.1557 23.9362 26.6575 24.0403C27.9749 24.3139 28.7088 25.4587 28.578 27.0361C28.5088 27.8711 28.2242 28.3791 27.5388 28.8911C27.1528 29.1796 26.9145 29.1929 20.9454 29.2628C14.1198 29.3428 14.274 29.3218 13.4639 30.2845C12.9861 30.8523 12.8868 31.2471 12.9701 32.2502C13.045 33.1541 13.3694 33.6848 14.1149 34.1238C14.5561 34.3838 14.9214 34.4191 17.6184 34.4629L20.6293 34.512V35.5746C20.6293 36.5832 20.6521 36.6565 21.0758 37.013C21.4967 37.3672 21.6132 37.3887 23.1144 37.3887C25.0285 37.3887 25.4754 37.2193 25.7005 36.4089C25.7834 36.1099 25.8518 35.5617 25.8522 35.191L25.8531 34.5168L27.0502 34.4165C30.4482 34.1319 32.4516 32.7074 33.3964 29.9043C33.6187 29.245 33.7038 28.5052 33.7625 26.7235C33.8048 25.4466 33.8713 24.0101 33.9103 23.5312C33.9913 22.5393 34.4953 21.3888 35.0985 20.8196C35.5449 20.3983 36.7287 19.709 37.3073 19.5335Z" fill="#00D876"/>
<path fill-rule="evenodd" clip-rule="evenodd" d="M81.0703 7.82364C81.165 7.53068 92.8953 7.56769 94.323 7.86544C97.0398 8.43222 98.6881 9.52471 99.5072 11.3015C99.8757 12.1008 99.9336 12.4125 99.9767 13.8331C100.034 15.7174 99.7545 16.9879 98.905 18.7068C98.0107 20.5162 96.6201 21.8943 94.814 22.7608C94.3153 23 93.9071 23.2672 93.9071 23.3544C93.9073 23.4418 94.2596 24.1373 94.6901 24.9003C95.1207 25.6636 95.6104 26.5331 95.7784 26.8323C95.9463 27.1317 96.2235 27.6214 96.3944 27.9206C97.7346 30.2672 98.6531 32.0124 98.5846 32.0825C98.4618 32.2052 91.6858 32.1778 91.5005 32.054C91.4139 31.9953 90.912 31.131 90.3852 30.1335C89.8583 29.1359 88.9396 27.4055 88.3435 26.2882L87.2598 24.2567L85.795 24.2153C84.9895 24.1926 84.3303 24.2171 84.3302 24.2696C84.3301 24.3228 84.1732 25.1574 83.9817 26.1248C83.7901 27.0925 83.4925 28.6353 83.3203 29.553C83.1482 30.4708 82.9404 31.4353 82.8586 31.6963L82.7097 32.1706L76.5671 32.0924L76.5222 31.7038C76.484 31.3733 76.7426 29.9135 77.5073 26.1431C77.6795 25.2935 78.0341 23.4496 78.6654 20.1212C78.9153 18.8045 79.182 17.491 79.258 17.2023C79.3342 16.9137 79.3966 16.5087 79.3966 16.3022C79.3966 16.0957 79.4552 15.7768 79.5267 15.5935C79.5983 15.4102 79.7355 14.8031 79.8318 14.2445C80.0734 12.8421 80.9985 8.04603 81.0703 7.82364ZM86.5127 13.4633C86.2049 14.1694 85.4335 18.4558 85.5565 18.7766C85.6086 18.9121 86.1239 18.9606 87.5107 18.9606C90.6875 18.9606 91.7886 18.5977 92.7399 17.2372C93.2321 16.5332 93.3237 14.8763 92.9069 14.2155C92.3836 13.3854 91.9387 13.2632 89.1607 13.1863L86.6635 13.1171L86.5127 13.4633Z" fill="#00D876"/>
<path d="M75.7014 8.33151C75.5116 9.63225 74.7813 13.1765 74.6827 13.2753C74.6273 13.3295 72.0959 13.4065 69.0564 13.4464L63.5282 13.519L63.1247 15.4728C62.8172 16.9617 62.7629 17.4534 62.8967 17.5384C62.9944 17.5998 65.2404 17.651 67.8886 17.6523C70.5374 17.6535 72.734 17.7034 72.7699 17.7633C72.8284 17.862 72.4772 19.9128 71.9682 22.4429L71.7786 23.3861L61.6237 23.5312L61.4442 24.2567C61.3454 24.6558 60.9616 26.5494 60.5913 28.4648C60.221 30.38 59.8441 31.9952 59.7538 32.054C59.6634 32.1126 58.2348 32.1615 56.5789 32.1628L53.568 32.1649V31.6868C53.568 31.4237 53.699 30.5586 53.8591 29.7642C54.0191 28.9698 54.2204 27.9605 54.3062 27.5216C54.3921 27.0827 54.5202 26.4623 54.5911 26.1431C54.6621 25.8239 54.8483 24.877 55.005 24.0391C55.4407 21.7086 56.4452 16.4813 56.8315 14.5347C57.0215 13.577 57.3154 12.0426 57.4843 11.1248C57.829 9.25242 58.0612 8.0936 58.1455 7.82364C58.19 7.68115 60.0892 7.64226 67.0021 7.64226H75.8019L75.7014 8.33151Z" fill="#00D876"/>
<path d="M107.765 7.82364C107.848 7.58365 125.393 7.55506 125.395 7.79502C125.395 7.87918 125.303 8.38513 125.19 8.91958C125.078 9.45401 124.84 10.6261 124.66 11.5238L124.334 13.1562L119.314 13.1646C116.553 13.1691 114.038 13.2186 113.724 13.2743C113.098 13.3854 113.051 13.4731 112.776 15.0426C112.699 15.4815 112.593 16.0856 112.539 16.3848L112.442 16.9289H117.4C121.232 16.9289 122.372 16.9702 122.425 17.1103C122.463 17.2107 122.276 18.4347 122.011 19.831L121.528 22.3704L116.571 22.4085C111.619 22.4466 111.614 22.447 111.403 22.7712C111.187 23.102 110.566 26.3732 110.693 26.5058C110.734 26.5457 113.251 26.594 116.288 26.6128C119.326 26.6317 121.843 26.6781 121.88 26.7157C121.962 26.8014 121.078 31.3726 120.89 31.8384L120.758 32.1649H112.066C105.29 32.1649 103.342 32.125 103.225 31.9835C103.12 31.8562 103.219 31.0879 103.557 29.4079C103.821 28.0911 104.178 26.2628 104.35 25.345C104.522 24.4273 104.725 23.3825 104.802 23.0233C105.065 21.7934 105.678 18.5981 105.887 17.3643C106.002 16.6859 106.192 15.7065 106.309 15.1877C106.427 14.669 106.788 12.8406 107.113 11.1248C107.437 9.40909 107.731 7.92376 107.765 7.82364Z" fill="#00D876"/>
<path d="M139.973 7.64226C144.804 7.64226 148.756 7.68608 148.757 7.73947C148.757 8.0807 147.83 12.6957 147.721 12.9023C147.596 13.1371 147.185 13.1562 142.285 13.1562C139.142 13.1562 136.877 13.2134 136.721 13.2968C136.526 13.4014 136.396 13.8013 136.216 14.8567C136.083 15.6373 135.943 16.4221 135.906 16.6006L135.838 16.9251L145.782 17.0015L145.751 17.5819C145.718 18.192 145.216 20.9697 144.971 21.8988L144.827 22.4429H139.917C136.165 22.4429 134.972 22.4857 134.859 22.6243C134.679 22.8437 134.101 25.4601 134.101 26.0523C134.101 26.371 134.181 26.4928 134.428 26.5494C134.607 26.5905 136.942 26.5991 139.615 26.5683C142.288 26.5377 144.659 26.5496 144.882 26.5948C145.274 26.6742 145.285 26.7006 145.197 27.3532C145.146 27.7251 145.053 28.2253 144.988 28.4648C144.923 28.7042 144.756 29.5531 144.616 30.3511C144.476 31.1491 144.298 31.8838 144.22 31.9835C144.109 32.125 142.153 32.1649 135.317 32.1649C126.436 32.1649 126.458 32.1661 126.542 31.683C126.553 31.6174 126.622 31.193 126.695 30.7398C126.769 30.2867 126.902 29.5893 126.992 29.1903C127.082 28.7913 127.208 28.1383 127.272 27.7392C127.336 27.3402 127.489 26.524 127.613 25.9254C127.737 25.3269 128.106 23.4332 128.433 21.7174C128.76 20.0016 129.157 17.9447 129.314 17.1466C129.859 14.3833 130.169 12.7826 130.62 10.3992C130.869 9.08255 131.099 7.92367 131.131 7.82364C131.177 7.68116 133.075 7.64226 139.973 7.64226Z" fill="#00D876"/>
<path d="M16.3487 0.0973924C17.0253 -0.0860041 35.939 0.0124266 36.8283 0.203812C37.2382 0.292183 37.8259 0.494825 38.1342 0.654429C38.9133 1.05785 45.8064 8.01713 46.0834 8.6801C46.6166 9.95648 46.4733 12.7095 45.8049 14.0254C45.3374 14.9461 44.6791 15.5828 44.0083 15.7634C43.618 15.8686 39.5808 15.9056 31.4036 15.8794L19.3732 15.8407L18.8403 15.4341C18.1006 14.87 17.871 14.3534 17.8793 13.2723C17.8878 12.1502 18.2021 11.4608 18.8881 11.0593C19.3722 10.7759 19.6801 10.7587 25.4903 10.6895C32.3689 10.6076 32.3355 10.6128 33.0849 9.4803C33.3979 9.00742 33.4705 8.72979 33.4684 8.01565C33.4649 6.97223 33.1438 6.33449 32.384 5.86204C31.912 5.56864 31.6556 5.5418 28.864 5.49304C26.1811 5.44618 25.8517 5.41399 25.8403 5.19915C25.7457 3.41493 25.7011 3.21073 25.337 2.89009C24.9964 2.59016 24.8242 2.5636 23.2219 2.5636C21.4875 2.5636 21.4752 2.56605 21.0534 2.98772C20.6645 3.3766 20.6293 3.49735 20.6293 4.43877V5.46569H19.8251C18.7726 5.46569 16.9496 5.8476 16.2161 6.22182C14.725 6.98246 13.7664 8.01461 13.1285 9.54619C12.7655 10.4175 12.737 10.6592 12.6409 13.6641C12.563 16.1014 12.4807 17.0175 12.2926 17.5377C11.6228 19.3902 8.76209 21.168 7.87612 20.2824C7.57663 19.9829 7.56984 19.8696 7.57231 15.0789C7.57565 8.59374 7.75165 7.09946 8.73995 5.1555C9.89236 2.88839 12.4461 0.980119 15.1153 0.391427C15.5543 0.294643 16.1093 0.162252 16.3487 0.0973924Z" fill="#00D876"/>
<path d="M163.673 7.4254C166.914 6.95396 169.835 7.23268 172.048 8.22446C172.386 8.37609 172.721 8.50022 172.792 8.50022C173.174 8.50024 173.236 8.90989 173.015 9.96288C172.89 10.555 172.722 11.3987 172.64 11.8376C172.158 14.436 172.061 14.8848 171.983 14.8848C171.902 14.8848 171.033 14.2885 170.925 14.1587C170.802 14.0113 169.792 13.5723 168.997 13.3207C168.085 13.0324 164.503 12.9723 163.946 13.2358C163.754 13.3265 163.303 13.4867 162.944 13.5919C161.261 14.0851 159.266 15.7233 158.333 17.3795C157.465 18.9199 157.218 19.8743 157.215 21.7047C157.213 23.2618 157.24 23.4222 157.617 24.1026C158.163 25.0871 158.765 25.7038 159.586 26.1201C162.181 27.4346 165.821 27.2873 168.748 25.7494C169.187 25.5188 169.658 25.2513 169.794 25.1551C169.929 25.0587 170.082 25.0217 170.134 25.0729C170.218 25.1576 169.947 26.8583 169.618 28.307C169.545 28.6262 169.407 29.3632 169.31 29.9448C169.214 30.5264 169.065 31.089 168.978 31.1952C168.733 31.4957 166.806 32.1159 165.048 32.4599C163.121 32.837 159.569 32.9157 158.301 32.6092C152.749 31.2679 149.981 27.9049 150.222 22.793C150.37 19.6515 151.152 17.0488 152.736 14.429C154.054 12.2485 156.811 9.79722 159.026 8.83662C159.465 8.64624 159.955 8.42955 160.115 8.35511C160.829 8.02253 162.411 7.6091 163.673 7.4254ZM212.492 7.34562C214.633 7.06571 217.579 7.22644 219.39 7.72241C221.039 8.17379 222.966 9.102 222.803 9.36631C222.768 9.42232 222.64 9.98492 222.518 10.6166C222.396 11.2482 222.234 12.0589 222.159 12.418C222.083 12.7772 221.939 13.5118 221.84 14.0505C221.74 14.5891 221.587 15.0299 221.501 15.0299C221.414 15.0299 221.106 14.8689 220.817 14.672C218.9 13.3695 215.63 12.6485 213.299 13.0143C211.628 13.2764 210.974 13.7319 210.974 14.6334C210.974 15.3951 211.703 15.8728 214.456 16.9166C219.297 18.7514 220.72 19.8642 221.559 22.4749C221.741 23.0409 221.738 25.0296 221.554 25.55C221.498 25.7096 221.368 26.134 221.265 26.4932C220.689 28.5139 218.947 30.5654 217.02 31.4925C215.773 32.0919 215.43 32.2056 213.876 32.5337C212.515 32.8209 208.085 32.8635 206.911 32.6007C204.744 32.1158 204.136 31.935 202.935 31.4171C202.221 31.1089 201.541 30.7622 201.425 30.6465C201.242 30.463 201.282 30.0984 201.741 27.7711C202.031 26.3054 202.268 24.9977 202.268 24.865C202.268 24.4245 202.575 24.425 203.19 24.8667C205.197 26.3079 207.873 27.0736 210.902 27.0736C213.264 27.0736 214.45 26.6399 214.689 25.6883C214.917 24.7791 214.035 23.8924 212.235 23.2205C210.921 22.7305 210.53 22.574 210.214 22.4132C210.075 22.3427 209.895 22.2851 209.813 22.2851C209.732 22.2851 208.987 21.9556 208.158 21.5528C207.015 20.9972 206.456 20.6211 205.84 19.9929C204.864 18.9968 204.734 18.8086 204.326 17.8039C203.967 16.9189 203.899 15.3569 204.171 14.1976C204.45 13.0013 205.467 11.146 206.309 10.2956C207.706 8.88448 210.343 7.62669 212.492 7.34562ZM189.721 7.62959C192.243 7.62959 193.127 7.67515 193.235 7.81097C193.314 7.9108 193.49 8.58002 193.627 9.29829C193.763 10.0166 194.32 12.857 194.865 15.6103C195.409 18.3637 195.885 20.7797 195.923 20.9792C195.961 21.1787 196.098 21.8644 196.227 22.5028C196.357 23.1413 196.533 24.0228 196.62 24.4617C196.706 24.9007 196.832 25.521 196.899 25.8402C196.949 26.0796 197.035 26.5068 197.114 26.9074L197.264 27.6751C197.317 27.9422 197.372 28.2211 197.419 28.4483L197.54 29.0363C197.609 29.3771 197.7 29.8342 197.769 30.1933C197.862 30.6722 197.987 31.2928 198.047 31.5725C198.107 31.8523 198.129 32.1625 198.096 32.2618C198.019 32.4915 191.598 32.5255 191.457 32.2969C191.367 32.1508 191.247 31.5238 190.937 29.5766L190.769 28.5246H180.68L180.452 28.8729C180.327 29.0647 179.886 29.8645 179.473 30.6505C179.06 31.4366 178.657 32.1614 178.578 32.2611C178.357 32.5405 172.108 32.5204 171.999 32.24C171.919 32.0317 172.354 31.1894 173.568 29.2033C173.95 28.5791 174.262 28.0392 174.262 28.003C174.262 27.9673 174.417 27.6945 174.606 27.3971C174.796 27.0995 175.621 25.7132 176.441 24.3166C177.261 22.92 178.119 21.4662 178.346 21.0859C178.574 20.7056 178.761 20.3582 178.761 20.3139C178.761 20.2696 178.957 19.9487 179.196 19.6007C179.435 19.2528 179.631 18.9294 179.631 18.8821C179.631 18.8349 179.786 18.5529 179.976 18.2555C180.166 17.9579 180.796 16.8981 181.377 15.9005C181.958 14.903 182.839 13.4011 183.334 12.5631C183.829 11.7252 184.614 10.3866 185.078 9.5885C185.541 8.79043 186.017 8.02311 186.136 7.88352C186.329 7.65514 186.69 7.62959 189.721 7.62959ZM245.551 7.81097C245.717 7.59419 251.825 7.54607 251.957 7.76038C252.036 7.88889 251.61 10.3045 251.021 13.071C250.953 13.3902 250.823 14.0759 250.733 14.5946C250.644 15.1133 250.514 15.7663 250.446 16.0457C250.377 16.325 250.244 17.0106 250.15 17.5692C250.056 18.1279 249.922 18.8135 249.853 19.0928C249.784 19.3722 249.559 20.5149 249.352 21.6322C249.145 22.7495 248.779 24.6757 248.539 25.9128C248.299 27.1498 248.047 28.4557 247.98 28.8148C247.912 29.174 247.782 29.8596 247.691 30.3384C247.601 30.8173 247.448 31.4703 247.352 31.7895L247.177 32.3699L244.068 32.4092C242.358 32.4308 240.902 32.3921 240.833 32.3233C240.763 32.2532 240.807 31.6931 240.933 31.0508C241.056 30.4196 241.226 29.5113 241.311 29.0325C241.396 28.5537 241.523 27.9007 241.593 27.5815C241.663 27.2622 241.748 26.8378 241.783 26.6383C241.817 26.4388 241.948 25.7858 242.073 25.1872C242.198 24.5887 242.321 23.8704 242.345 23.5911L242.389 23.0832L233.606 23.0064L233.478 23.335C233.408 23.5159 233.275 24.1208 233.182 24.6794C233.09 25.238 232.958 25.9563 232.889 26.2755C232.746 26.9334 232.595 27.6897 232.097 30.236C231.906 31.2172 231.67 32.1151 231.573 32.2312C231.43 32.4039 230.843 32.4425 228.364 32.4425C225.717 32.4425 225.319 32.4129 225.241 32.2103C225.161 32.0011 225.387 30.6709 226.213 26.4932C226.615 24.463 227.43 20.2281 227.945 17.4967C228.193 16.1799 228.454 14.8413 228.525 14.5221C228.647 13.9709 228.787 13.2559 229.094 11.62C229.647 8.67899 229.843 7.87796 230.044 7.74054C230.13 7.68192 231.588 7.63302 233.284 7.63172L236.367 7.62959V7.99844C236.367 8.2013 236.273 8.83802 236.159 9.41321C236.044 9.98841 235.748 11.5365 235.501 12.8534C235.254 14.1702 234.988 15.4837 234.911 15.7723C234.834 16.0609 234.771 16.469 234.771 16.6792V17.0614H239.187C243.269 17.0614 243.608 17.0422 243.673 16.8075C243.712 16.6679 244.119 14.6273 244.578 12.2729C245.037 9.91861 245.474 7.9108 245.551 7.81097ZM188.08 15.0663C187.911 15.4454 187.419 16.3922 186.986 17.1704C186.552 17.9484 186.036 18.8788 185.837 19.238C185.639 19.5971 185.325 20.1521 185.139 20.4713C184.482 21.602 183.846 22.7944 183.843 22.9018C183.841 22.9618 185.181 23.0107 186.82 23.0107H189.802L189.725 22.5391C189.683 22.2796 189.514 21.186 189.35 20.1086C189.185 19.0312 188.989 17.8758 188.912 17.5412C188.836 17.2066 188.77 16.7168 188.767 16.4529C188.763 16.1889 188.676 15.6139 188.573 15.175L188.386 14.377L188.08 15.0663Z" fill="white"/>
</svg>
