<svg width="24" height="19" viewBox="0 0 24 19" fill="none" xmlns="http://www.w3.org/2000/svg">
<path d="M2.11067 16.664C0.737334 15.2053 0 13.5693 0 10.9173C0 6.25067 3.276 2.068 8.04 0L9.23067 1.83733C4.784 4.24267 3.91467 7.364 3.568 9.332C4.284 8.96133 5.22133 8.832 6.14 8.91733C8.54533 9.14 10.4413 11.1147 10.4413 13.5693C10.4413 14.807 9.94967 15.994 9.0745 16.8692C8.19933 17.7443 7.01234 18.236 5.77467 18.236C5.0902 18.2301 4.41375 18.0881 3.7847 17.8182C3.15566 17.5483 2.5866 17.156 2.11067 16.664ZM15.444 16.664C14.0707 15.2053 13.3333 13.5693 13.3333 10.9173C13.3333 6.25067 16.6093 2.068 21.3733 0L22.564 1.83733C18.1173 4.24267 17.248 7.364 16.9013 9.332C17.6173 8.96133 18.5547 8.832 19.4733 8.91733C21.8787 9.14 23.7747 11.1147 23.7747 13.5693C23.7747 14.807 23.283 15.994 22.4078 16.8692C21.5327 17.7443 20.3457 18.236 19.108 18.236C18.4235 18.2301 17.7471 18.0881 17.118 17.8182C16.489 17.5483 15.9199 17.156 15.444 16.664Z" fill="#24D071"/>
</svg>
