<svg width="24" height="22" viewBox="0 0 24 22" fill="none" xmlns="http://www.w3.org/2000/svg">
<path d="M1.33333 1.33398C2.07083 1.33398 2.66667 1.92982 2.66667 2.66732V12.0007H12V6.66732C12 5.92982 12.5958 5.33398 13.3333 5.33398H20C22.2083 5.33398 24 7.12565 24 9.33398V18.6673C24 19.4048 23.4042 20.0007 22.6667 20.0007C21.9292 20.0007 21.3333 19.4048 21.3333 18.6673V16.0007H2.66667V18.6673C2.66667 19.4048 2.07083 20.0007 1.33333 20.0007C0.595833 20.0007 0 19.4048 0 18.6673V2.66732C0 1.92982 0.595833 1.33398 1.33333 1.33398ZM4.66667 8.00065C4.66667 7.29341 4.94762 6.61513 5.44772 6.11503C5.94781 5.61494 6.62609 5.33398 7.33333 5.33398C8.04058 5.33398 8.71885 5.61494 9.21895 6.11503C9.71905 6.61513 10 7.29341 10 8.00065C10 8.7079 9.71905 9.38617 9.21895 9.88627C8.71885 10.3864 8.04058 10.6673 7.33333 10.6673C6.62609 10.6673 5.94781 10.3864 5.44772 9.88627C4.94762 9.38617 4.66667 8.7079 4.66667 8.00065Z" fill="#010101"/>
</svg>
